<svg width="18" height="18" viewBox="0 0 18 18" fill="none" xmlns="http://www.w3.org/2000/svg">
<path d="M9 4.4917C11.4609 4.4917 13.4922 6.52295 13.4922 8.98389C13.4922 11.4839 11.4609 13.4761 9 13.4761C6.5 13.4761 4.50781 11.4839 4.50781 8.98389C4.50781 6.52295 6.5 4.4917 9 4.4917ZM9 11.9136C10.6016 11.9136 11.8906 10.6245 11.8906 8.98389C11.8906 7.38232 10.6016 6.09326 9 6.09326C7.35938 6.09326 6.07031 7.38232 6.07031 8.98389C6.07031 10.6245 7.39844 11.9136 9 11.9136ZM14.7031 4.33545C14.7031 4.92139 14.2344 5.39014 13.6484 5.39014C13.0625 5.39014 12.5938 4.92139 12.5938 4.33545C12.5938 3.74951 13.0625 3.28076 13.6484 3.28076C14.2344 3.28076 14.7031 3.74951 14.7031 4.33545ZM17.6719 5.39014C17.75 6.83545 17.75 11.1714 17.6719 12.6167C17.5938 14.0229 17.2812 15.2339 16.2656 16.2886C15.25 17.3042 14 17.6167 12.5938 17.6948C11.1484 17.7729 6.8125 17.7729 5.36719 17.6948C3.96094 17.6167 2.75 17.3042 1.69531 16.2886C0.679688 15.2339 0.367188 14.0229 0.289062 12.6167C0.210938 11.1714 0.210938 6.83545 0.289062 5.39014C0.367188 3.98389 0.679688 2.73389 1.69531 1.71826C2.75 0.702637 3.96094 0.390137 5.36719 0.312012C6.8125 0.233887 11.1484 0.233887 12.5938 0.312012C14 0.390137 15.25 0.702637 16.2656 1.71826C17.2812 2.73389 17.5938 3.98389 17.6719 5.39014ZM15.7969 14.1401C16.2656 13.0073 16.1484 10.2729 16.1484 8.98389C16.1484 7.73389 16.2656 4.99951 15.7969 3.82764C15.4844 3.08545 14.8984 2.46045 14.1562 2.18701C12.9844 1.71826 10.25 1.83545 9 1.83545C7.71094 1.83545 4.97656 1.71826 3.84375 2.18701C3.0625 2.49951 2.47656 3.08545 2.16406 3.82764C1.69531 4.99951 1.8125 7.73389 1.8125 8.98389C1.8125 10.2729 1.69531 13.0073 2.16406 14.1401C2.47656 14.9214 3.0625 15.5073 3.84375 15.8198C4.97656 16.2886 7.71094 16.1714 9 16.1714C10.25 16.1714 12.9844 16.2886 14.1562 15.8198C14.8984 15.5073 15.5234 14.9214 15.7969 14.1401Z" fill="white"/>
</svg>
