<svg width="20" height="18" viewBox="0 0 20 18" fill="none" xmlns="http://www.w3.org/2000/svg">
<path d="M17.9297 4.92139C17.9297 5.1167 17.9297 5.27295 17.9297 5.46826C17.9297 10.8979 13.8281 17.1089 6.28906 17.1089C3.94531 17.1089 1.79688 16.4448 0 15.2729C0.3125 15.312 0.625 15.3511 0.976562 15.3511C2.89062 15.3511 4.64844 14.687 6.05469 13.5933C4.25781 13.5542 2.73438 12.3823 2.22656 10.7417C2.5 10.7808 2.73438 10.8198 3.00781 10.8198C3.35938 10.8198 3.75 10.7417 4.0625 10.6636C2.1875 10.2729 0.78125 8.63232 0.78125 6.64014V6.60107C1.32812 6.91357 1.99219 7.06982 2.65625 7.10889C1.52344 6.3667 0.820312 5.1167 0.820312 3.71045C0.820312 2.9292 1.01562 2.22607 1.36719 1.64014C3.39844 4.10107 6.44531 5.7417 9.84375 5.93701C9.76562 5.62451 9.72656 5.31201 9.72656 4.99951C9.72656 2.73389 11.5625 0.897949 13.8281 0.897949C15 0.897949 16.0547 1.3667 16.8359 2.18701C17.7344 1.9917 18.6328 1.64014 19.4141 1.17139C19.1016 2.14795 18.4766 2.9292 17.6172 3.43701C18.4375 3.35889 19.2578 3.12451 19.9609 2.81201C19.4141 3.63232 18.7109 4.33545 17.9297 4.92139Z" fill="white"/>
</svg>
